<svg xmlns="http://www.w3.org/2000/svg" xmlns:xlink="http://www.w3.org/1999/xlink" width="891" zoomAndPan="magnify" viewBox="0 0 668.25 749.249995" height="999" preserveAspectRatio="xMidYMid meet" version="1.0"><defs><filter x="0%" y="0%" width="100%" height="100%" id="2f98dab098"><feColorMatrix values="0 0 0 0 1 0 0 0 0 1 0 0 0 0 1 0 0 0 1 0" color-interpolation-filters="sRGB"/></filter><mask id="c874023b92"><g filter="url(#2f98dab098)"><rect x="-66.825" width="801.9" fill="#000000" y="-74.924999" height="899.099994" fill-opacity="0.12"/></g></mask><clipPath id="fa9c2ad045"><path d="M 0.398438 3.382812 L 624.78125 3.382812 L 624.78125 65.820312 L 0.398438 65.820312 Z M 0.398438 3.382812 " clip-rule="nonzero"/></clipPath><clipPath id="bca52d4d2f"><rect x="0" width="628" y="0" height="69"/></clipPath><clipPath id="820f7463e6"><path d="M 237 0.046875 L 667 0.046875 L 667 396 L 237 396 Z M 237 0.046875 " clip-rule="nonzero"/></clipPath><mask id="47d0dde24d"><g filter="url(#2f98dab098)"><rect x="-66.825" width="801.9" fill="#000000" y="-74.924999" height="899.099994" fill-opacity="0.25"/></g></mask><clipPath id="d865e9a65d"><path d="M 0.09375 0.3125 L 429.300781 0.3125 L 429.300781 322 L 0.09375 322 Z M 0.09375 0.3125 " clip-rule="nonzero"/></clipPath><clipPath id="8cdd730554"><path d="M 95 315 L 335 315 L 335 395.753906 L 95 395.753906 Z M 95 315 " clip-rule="nonzero"/></clipPath><clipPath id="9cd7d5a909"><rect x="0" width="430" y="0" height="396"/></clipPath><mask id="e419352b02"><g filter="url(#2f98dab098)"><rect x="-66.825" width="801.9" fill="#000000" y="-74.924999" height="899.099994" fill-opacity="0.25"/></g></mask><clipPath id="6583c1983e"><path d="M 42 0.957031 L 387 0.957031 L 387 245 L 42 245 Z M 42 0.957031 " clip-rule="nonzero"/></clipPath><clipPath id="a4497ffff0"><path d="M 0 238 L 429.265625 238 L 429.265625 266 L 0 266 Z M 0 238 " clip-rule="nonzero"/></clipPath><clipPath id="c544462408"><rect x="0" width="430" y="0" height="267"/></clipPath><mask id="260e8bbfab"><g filter="url(#2f98dab098)"><rect x="-66.825" width="801.9" fill="#000000" y="-74.924999" height="899.099994" fill-opacity="0.25"/></g></mask><clipPath id="135d2c2aa1"><path d="M 1.183594 1.074219 L 185.898438 1.074219 L 185.898438 260.765625 L 1.183594 260.765625 Z M 1.183594 1.074219 " clip-rule="nonzero"/></clipPath><clipPath id="b0c1b218b3"><rect x="0" width="187" y="0" height="261"/></clipPath><clipPath id="8d7fcf1cf2"><path d="M 126 531 L 269 531 L 269 748.457031 L 126 748.457031 Z M 126 531 " clip-rule="nonzero"/></clipPath><mask id="be9f179fc5"><g filter="url(#2f98dab098)"><rect x="-66.825" width="801.9" fill="#000000" y="-74.924999" height="899.099994" fill-opacity="0.25"/></g></mask><clipPath id="36a0ed75c6"><path d="M 0.742188 0.929688 L 141 0.929688 L 141 216.859375 L 0.742188 216.859375 Z M 0.742188 0.929688 " clip-rule="nonzero"/></clipPath><clipPath id="0b1eaa62af"><rect x="0" width="143" y="0" height="218"/></clipPath></defs><g mask="url(#c874023b92)"><g transform="matrix(1, 0, 0, 1, 13, 387)"><g clip-path="url(#bca52d4d2f)"><g clip-path="url(#fa9c2ad045)"><path fill="#ffffff" d="M 0.398438 -277.3125 L 624.78125 -277.3125 L 624.78125 347.070312 L 0.398438 347.070312 Z M 0.398438 -277.3125 " fill-opacity="1" fill-rule="nonzero"/></g></g></g></g><g clip-path="url(#820f7463e6)"><g mask="url(#47d0dde24d)"><g transform="matrix(1, 0, 0, 1, 237, -0.000000000000104416)"><g clip-path="url(#9cd7d5a909)"><path fill="#ffffff" d="M 413.378906 3.484375 L 15.960938 3.484375 C 8.984375 3.484375 3.277344 9.191406 3.277344 16.171875 L 3.277344 305.882812 C 3.277344 312.859375 8.984375 318.570312 15.960938 318.570312 L 413.378906 318.570312 C 420.355469 318.570312 426.0625 312.859375 426.0625 305.882812 L 426.0625 16.171875 C 426.0625 9.191406 420.355469 3.484375 413.378906 3.484375 Z M 413.378906 3.484375 " fill-opacity="1" fill-rule="nonzero"/><g clip-path="url(#d865e9a65d)"><path fill="#032750" d="M 413.378906 321.742188 L 15.960938 321.742188 C 7.292969 321.742188 0.105469 314.550781 0.105469 305.882812 L 0.105469 16.171875 C 0.105469 7.5 7.292969 0.3125 15.960938 0.3125 L 413.378906 0.3125 C 422.046875 0.3125 429.234375 7.5 429.234375 16.171875 L 429.234375 305.882812 C 429.234375 314.550781 422.046875 321.742188 413.378906 321.742188 Z M 15.960938 6.65625 C 10.675781 6.65625 6.449219 10.886719 6.449219 16.171875 L 6.449219 305.882812 C 6.449219 311.167969 10.675781 315.398438 15.960938 315.398438 L 413.378906 315.398438 C 418.664062 315.398438 422.890625 311.167969 422.890625 305.882812 L 422.890625 16.171875 C 422.890625 10.886719 418.664062 6.65625 413.378906 6.65625 Z M 15.960938 6.65625 " fill-opacity="1" fill-rule="nonzero"/></g><path fill="#ffffff" d="M 407.039062 22.515625 L 407.039062 250.898438 L 22.304688 250.898438 L 22.304688 22.515625 Z M 407.039062 22.515625 " fill-opacity="1" fill-rule="nonzero"/><path fill="#032750" d="M 407.039062 251.957031 L 22.304688 251.957031 C 21.667969 251.957031 21.246094 251.535156 21.246094 250.898438 L 21.246094 22.515625 C 21.246094 21.882812 21.667969 21.457031 22.304688 21.457031 L 407.039062 21.457031 C 407.671875 21.457031 408.09375 21.882812 408.09375 22.515625 L 408.09375 250.898438 C 408.09375 251.535156 407.671875 251.957031 407.039062 251.957031 Z M 23.359375 249.84375 L 405.980469 249.84375 L 405.980469 23.574219 L 23.359375 23.574219 Z M 23.359375 249.84375 " fill-opacity="1" fill-rule="nonzero"/><path fill="#032750" d="M 426.0625 270.988281 L 3.277344 270.988281 C 2.644531 270.988281 2.222656 270.566406 2.222656 269.933594 C 2.222656 269.296875 2.644531 268.875 3.277344 268.875 L 426.0625 268.875 C 426.695312 268.875 427.121094 269.296875 427.121094 269.933594 C 427.121094 270.566406 426.695312 270.988281 426.0625 270.988281 Z M 426.0625 270.988281 " fill-opacity="1" fill-rule="nonzero"/><path fill="#ffffff" d="M 223.125 293.191406 C 223.125 293.75 223.070312 294.296875 222.964844 294.84375 C 222.855469 295.386719 222.695312 295.917969 222.484375 296.429688 C 222.269531 296.945312 222.007812 297.429688 221.699219 297.894531 C 221.394531 298.355469 221.042969 298.78125 220.648438 299.175781 C 220.257812 299.566406 219.828125 299.917969 219.367188 300.226562 C 218.90625 300.535156 218.417969 300.796875 217.90625 301.007812 C 217.394531 301.21875 216.863281 301.382812 216.320312 301.488281 C 215.777344 301.597656 215.226562 301.652344 214.671875 301.652344 C 214.117188 301.652344 213.566406 301.597656 213.019531 301.488281 C 212.476562 301.382812 211.949219 301.21875 211.433594 301.007812 C 210.921875 300.796875 210.433594 300.535156 209.972656 300.226562 C 209.511719 299.917969 209.082031 299.566406 208.691406 299.175781 C 208.296875 298.78125 207.949219 298.355469 207.640625 297.894531 C 207.332031 297.429688 207.070312 296.945312 206.859375 296.429688 C 206.644531 295.917969 206.484375 295.386719 206.378906 294.84375 C 206.269531 294.296875 206.214844 293.75 206.214844 293.191406 C 206.214844 292.636719 206.269531 292.085938 206.378906 291.542969 C 206.484375 291 206.644531 290.46875 206.859375 289.957031 C 207.070312 289.441406 207.332031 288.957031 207.640625 288.492188 C 207.949219 288.03125 208.296875 287.605469 208.691406 287.210938 C 209.082031 286.820312 209.511719 286.46875 209.972656 286.160156 C 210.433594 285.851562 210.921875 285.589844 211.433594 285.378906 C 211.949219 285.164062 212.476562 285.003906 213.019531 284.898438 C 213.566406 284.789062 214.117188 284.734375 214.671875 284.734375 C 215.226562 284.734375 215.777344 284.789062 216.320312 284.898438 C 216.863281 285.003906 217.394531 285.164062 217.90625 285.378906 C 218.417969 285.589844 218.90625 285.851562 219.367188 286.160156 C 219.828125 286.46875 220.257812 286.820312 220.648438 287.210938 C 221.042969 287.605469 221.394531 288.03125 221.699219 288.492188 C 222.007812 288.957031 222.269531 289.441406 222.484375 289.957031 C 222.695312 290.46875 222.855469 291 222.964844 291.542969 C 223.070312 292.085938 223.125 292.636719 223.125 293.191406 Z M 223.125 293.191406 " fill-opacity="1" fill-rule="nonzero"/><path fill="#032750" d="M 214.671875 302.710938 C 209.386719 302.710938 205.15625 298.480469 205.15625 293.191406 C 205.15625 287.90625 209.386719 283.675781 214.671875 283.675781 C 219.957031 283.675781 224.183594 287.90625 224.183594 293.191406 C 224.183594 298.480469 219.957031 302.710938 214.671875 302.710938 Z M 214.671875 285.792969 C 210.652344 285.792969 207.273438 289.175781 207.273438 293.191406 C 207.273438 297.210938 210.652344 300.59375 214.671875 300.59375 C 218.6875 300.59375 222.070312 297.210938 222.070312 293.191406 C 222.070312 289.175781 218.6875 285.792969 214.671875 285.792969 Z M 214.671875 285.792969 " fill-opacity="1" fill-rule="nonzero"/><path fill="#ffffff" d="M 277.453125 367.628906 L 261.175781 318.570312 L 168.164062 318.570312 L 151.886719 367.628906 C 148.925781 376.300781 141.105469 382.433594 132.015625 383.277344 L 98.617188 384.125 L 98.617188 392.582031 L 331.148438 392.582031 L 331.148438 384.125 L 297.746094 383.277344 C 288.234375 382.433594 280.414062 376.300781 277.453125 367.628906 Z M 277.453125 367.628906 " fill-opacity="1" fill-rule="nonzero"/><g clip-path="url(#8cdd730554)"><path fill="#032750" d="M 330.9375 395.753906 L 98.40625 395.753906 C 96.714844 395.753906 95.234375 394.273438 95.234375 392.582031 L 95.234375 384.125 C 95.234375 382.433594 96.503906 380.953125 98.40625 380.953125 L 131.804688 380.105469 C 139.625 379.472656 146.390625 374.183594 148.925781 366.574219 L 165.203125 317.511719 C 165.628906 316.242188 166.894531 315.398438 168.164062 315.398438 L 261.175781 315.398438 C 262.445312 315.398438 263.714844 316.242188 264.136719 317.511719 L 280.414062 366.574219 C 282.949219 374.183594 289.714844 379.472656 297.535156 380.105469 L 330.9375 380.953125 C 332.628906 380.953125 334.105469 382.433594 334.105469 384.125 L 334.105469 392.582031 C 334.105469 394.273438 332.628906 395.753906 330.9375 395.753906 Z M 101.574219 389.410156 L 327.765625 389.410156 L 327.765625 387.296875 L 297.324219 386.449219 C 286.753906 385.605469 277.664062 378.625 274.496094 368.6875 L 258.851562 321.953125 L 170.488281 321.953125 L 154.847656 368.6875 C 151.464844 378.625 142.585938 385.605469 132.015625 386.449219 L 101.574219 387.296875 Z M 101.574219 389.410156 " fill-opacity="1" fill-rule="nonzero"/></g><path fill="#032750" d="M 330.9375 385.179688 L 98.40625 385.179688 C 97.769531 385.179688 97.347656 384.757812 97.347656 384.125 C 97.347656 383.488281 97.769531 383.066406 98.40625 383.066406 L 330.9375 383.066406 C 331.570312 383.066406 331.992188 383.488281 331.992188 384.125 C 331.992188 384.757812 331.570312 385.179688 330.9375 385.179688 Z M 330.9375 385.179688 " fill-opacity="1" fill-rule="nonzero"/></g></g></g></g><g mask="url(#e419352b02)"><g transform="matrix(1, 0, 0, 1, 0, 188)"><g clip-path="url(#c544462408)"><path fill="#ffffff" d="M 383.800781 241.578125 L 45.464844 241.578125 L 45.464844 16.863281 C 45.464844 9.867188 51.171875 4.140625 58.152344 4.140625 L 371.113281 4.140625 C 378.089844 4.140625 383.800781 9.867188 383.800781 16.863281 Z M 383.800781 241.578125 " fill-opacity="1" fill-rule="nonzero"/><g clip-path="url(#6583c1983e)"><path fill="#032750" d="M 383.800781 244.757812 L 45.464844 244.757812 C 43.773438 244.757812 42.292969 243.273438 42.292969 241.578125 L 42.292969 16.863281 C 42.292969 8.171875 49.480469 0.960938 58.152344 0.960938 L 371.113281 0.960938 C 379.78125 0.960938 386.972656 8.171875 386.972656 16.863281 L 386.972656 241.578125 C 386.972656 243.273438 385.492188 244.757812 383.800781 244.757812 Z M 48.636719 238.398438 L 380.628906 238.398438 L 380.628906 16.863281 C 380.628906 11.5625 376.398438 7.320312 371.113281 7.320312 L 58.152344 7.320312 C 52.863281 7.320312 48.636719 11.5625 48.636719 16.863281 Z M 48.636719 238.398438 " fill-opacity="1" fill-rule="nonzero"/></g><path fill="#ffffff" d="M 426.09375 241.578125 L 3.171875 241.578125 C 3.171875 253.238281 12.6875 262.777344 24.316406 262.777344 L 404.945312 262.777344 C 416.574219 262.777344 426.09375 253.238281 426.09375 241.578125 Z M 426.09375 241.578125 " fill-opacity="1" fill-rule="nonzero"/><g clip-path="url(#a4497ffff0)"><path fill="#032750" d="M 404.945312 265.957031 L 24.316406 265.957031 C 10.996094 265.957031 0 254.933594 0 241.578125 C 0 239.882812 1.480469 238.398438 3.171875 238.398438 L 426.09375 238.398438 C 427.785156 238.398438 429.265625 239.882812 429.265625 241.578125 C 429.265625 254.933594 418.269531 265.957031 404.945312 265.957031 Z M 6.554688 244.757812 C 8.035156 253.238281 15.4375 259.597656 24.316406 259.597656 L 404.945312 259.597656 C 413.828125 259.597656 421.226562 253.238281 422.707031 244.757812 Z M 6.554688 244.757812 " fill-opacity="1" fill-rule="nonzero"/></g><path fill="#ffffff" d="M 364.769531 23.222656 L 364.769531 222.496094 L 64.496094 222.496094 L 64.496094 23.222656 Z M 364.769531 23.222656 " fill-opacity="1" fill-rule="nonzero"/><path fill="#032750" d="M 364.769531 223.558594 L 64.496094 223.558594 C 63.859375 223.558594 63.4375 223.132812 63.4375 222.496094 L 63.4375 23.222656 C 63.4375 22.585938 63.859375 22.160156 64.496094 22.160156 L 364.769531 22.160156 C 365.402344 22.160156 365.824219 22.585938 365.824219 23.222656 L 365.824219 222.496094 C 365.824219 223.132812 365.402344 223.558594 364.769531 223.558594 Z M 65.550781 221.4375 L 363.710938 221.4375 L 363.710938 24.28125 L 65.550781 24.28125 Z M 65.550781 221.4375 " fill-opacity="1" fill-rule="nonzero"/></g></g></g><g mask="url(#260e8bbfab)"><g transform="matrix(1, 0, 0, 1, 297, 487)"><g clip-path="url(#b0c1b218b3)"><path fill="#ffffff" d="M 174.007812 4.148438 L 12.859375 4.148438 C 8.191406 4.148438 4.15625 7.949219 4.15625 12.59375 L 4.15625 248.800781 C 4.15625 253.445312 7.976562 257.246094 12.859375 257.246094 L 174.007812 257.246094 C 178.679688 257.246094 182.710938 253.445312 182.710938 248.800781 L 182.710938 12.59375 C 182.710938 7.949219 178.890625 4.148438 174.007812 4.148438 Z M 174.007812 4.148438 " fill-opacity="1" fill-rule="nonzero"/><g clip-path="url(#135d2c2aa1)"><path fill="#032750" d="M 174.007812 260.621094 L 12.859375 260.621094 C 6.277344 260.621094 1.183594 255.34375 1.183594 249.011719 L 1.183594 12.59375 C 1.183594 6.261719 6.492188 0.984375 12.859375 0.984375 L 174.007812 0.984375 C 180.589844 0.984375 185.898438 6.261719 185.898438 12.59375 L 185.898438 248.800781 C 185.898438 255.34375 180.589844 260.621094 174.007812 260.621094 Z M 12.859375 7.316406 C 9.886719 7.316406 7.554688 9.636719 7.554688 12.59375 L 7.554688 248.800781 C 7.554688 251.757812 9.886719 254.078125 12.859375 254.078125 L 174.007812 254.078125 C 176.980469 254.078125 179.527344 251.757812 179.527344 248.800781 L 179.527344 12.59375 C 179.527344 9.636719 177.191406 7.316406 174.007812 7.316406 Z M 12.859375 7.316406 " fill-opacity="1" fill-rule="nonzero"/></g><path fill="#ffffff" d="M 167.746094 33.179688 L 167.746094 223.15625 L 19.125 223.15625 L 19.125 33.179688 Z M 167.746094 33.179688 " fill-opacity="1" fill-rule="nonzero"/><path fill="#032750" d="M 167.851562 224.316406 L 19.230469 224.316406 C 18.59375 224.316406 18.167969 223.894531 18.167969 223.261719 L 18.167969 33.28125 C 18.167969 32.648438 18.59375 32.226562 19.230469 32.226562 L 167.851562 32.226562 C 168.488281 32.226562 168.910156 32.648438 168.910156 33.28125 L 168.910156 223.261719 C 168.910156 223.683594 168.488281 224.316406 167.851562 224.316406 Z M 20.292969 222.203125 L 166.789062 222.203125 L 166.789062 34.335938 L 20.292969 34.335938 Z M 20.292969 222.203125 " fill-opacity="1" fill-rule="nonzero"/><path fill="#ffffff" d="M 76.554688 19.769531 C 76.554688 21.460938 78.042969 22.9375 79.738281 22.9375 L 107.339844 22.9375 C 109.039062 22.9375 110.527344 21.460938 110.527344 19.769531 C 110.527344 18.082031 109.039062 16.605469 107.339844 16.605469 L 79.738281 16.605469 C 78.042969 16.605469 76.554688 18.082031 76.554688 19.769531 Z M 76.554688 19.769531 " fill-opacity="1" fill-rule="nonzero"/><path fill="#032750" d="M 107.339844 23.992188 L 79.738281 23.992188 C 77.40625 23.992188 75.492188 22.09375 75.492188 19.769531 C 75.492188 17.449219 77.40625 15.550781 79.738281 15.550781 L 107.339844 15.550781 C 109.675781 15.550781 111.585938 17.449219 111.585938 19.769531 C 111.585938 22.09375 109.675781 23.992188 107.339844 23.992188 Z M 79.738281 17.660156 C 78.464844 17.660156 77.617188 18.503906 77.617188 19.769531 C 77.617188 21.039062 78.464844 21.882812 79.738281 21.882812 L 107.339844 21.882812 C 108.613281 21.882812 109.464844 21.039062 109.464844 19.769531 C 109.464844 18.503906 108.613281 17.660156 107.339844 17.660156 Z M 79.738281 17.660156 " fill-opacity="1" fill-rule="nonzero"/><path fill="#ffffff" d="M 102.03125 239.089844 C 102.03125 239.644531 101.980469 240.195312 101.871094 240.738281 C 101.761719 241.28125 101.601562 241.8125 101.386719 242.324219 C 101.171875 242.835938 100.910156 243.320312 100.601562 243.78125 C 100.292969 244.242188 99.941406 244.671875 99.546875 245.0625 C 99.152344 245.453125 98.722656 245.804688 98.257812 246.113281 C 97.796875 246.421875 97.304688 246.679688 96.789062 246.890625 C 96.273438 247.105469 95.746094 247.265625 95.199219 247.371094 C 94.648438 247.480469 94.097656 247.535156 93.539062 247.535156 C 92.984375 247.535156 92.429688 247.480469 91.882812 247.371094 C 91.335938 247.265625 90.804688 247.105469 90.289062 246.890625 C 89.773438 246.679688 89.285156 246.421875 88.820312 246.113281 C 88.359375 245.804688 87.929688 245.453125 87.535156 245.0625 C 87.140625 244.671875 86.789062 244.242188 86.480469 243.78125 C 86.167969 243.320312 85.90625 242.835938 85.695312 242.324219 C 85.480469 241.8125 85.320312 241.28125 85.210938 240.738281 C 85.101562 240.195312 85.046875 239.644531 85.046875 239.089844 C 85.046875 238.539062 85.101562 237.988281 85.210938 237.445312 C 85.320312 236.902344 85.480469 236.371094 85.695312 235.859375 C 85.90625 235.347656 86.167969 234.863281 86.480469 234.402344 C 86.789062 233.941406 87.140625 233.511719 87.535156 233.121094 C 87.929688 232.730469 88.359375 232.378906 88.820312 232.070312 C 89.285156 231.761719 89.773438 231.503906 90.289062 231.289062 C 90.804688 231.078125 91.335938 230.917969 91.882812 230.808594 C 92.429688 230.703125 92.984375 230.648438 93.539062 230.648438 C 94.097656 230.648438 94.648438 230.703125 95.199219 230.808594 C 95.746094 230.917969 96.273438 231.078125 96.789062 231.289062 C 97.304688 231.503906 97.796875 231.761719 98.257812 232.070312 C 98.722656 232.378906 99.152344 232.730469 99.546875 233.121094 C 99.941406 233.511719 100.292969 233.941406 100.601562 234.402344 C 100.910156 234.863281 101.171875 235.347656 101.386719 235.859375 C 101.601562 236.371094 101.761719 236.902344 101.871094 237.445312 C 101.980469 237.988281 102.03125 238.539062 102.03125 239.089844 Z M 102.03125 239.089844 " fill-opacity="1" fill-rule="nonzero"/><path fill="#032750" d="M 93.539062 248.589844 C 88.234375 248.589844 83.988281 244.367188 83.988281 239.089844 C 83.988281 233.8125 88.234375 229.59375 93.539062 229.59375 C 98.847656 229.59375 103.09375 233.8125 103.09375 239.089844 C 103.09375 244.367188 98.847656 248.589844 93.539062 248.589844 Z M 93.539062 231.703125 C 89.507812 231.703125 86.109375 235.082031 86.109375 239.089844 C 86.109375 243.101562 89.507812 246.480469 93.539062 246.480469 C 97.574219 246.480469 100.972656 243.101562 100.972656 239.089844 C 100.972656 235.082031 97.574219 231.703125 93.539062 231.703125 Z M 93.539062 231.703125 " fill-opacity="1" fill-rule="nonzero"/></g></g></g><g clip-path="url(#8d7fcf1cf2)"><g mask="url(#be9f179fc5)"><g transform="matrix(1, 0, 0, 1, 126, 531)"><g clip-path="url(#0b1eaa62af)"><path fill="#ffffff" d="M 127.195312 4.007812 L 13.957031 4.007812 C 8.519531 4.007812 4.027344 7.792969 4.027344 12.53125 L 4.027344 205.257812 C 4.027344 209.996094 8.519531 213.78125 13.957031 213.78125 L 127.195312 213.78125 C 132.632812 213.78125 137.125 209.996094 137.125 205.257812 L 137.125 12.53125 C 137.125 7.792969 132.632812 4.007812 127.195312 4.007812 Z M 127.195312 4.007812 " fill-opacity="1" fill-rule="nonzero"/><g clip-path="url(#36a0ed75c6)"><path fill="#032750" d="M 127.195312 216.859375 L 13.957031 216.859375 C 6.390625 216.859375 0.242188 211.652344 0.242188 205.257812 L 0.242188 12.53125 C 0.242188 6.136719 6.390625 0.929688 13.957031 0.929688 L 127.195312 0.929688 C 134.761719 0.929688 140.90625 6.136719 140.90625 12.53125 L 140.90625 205.257812 C 140.90625 211.652344 134.761719 216.859375 127.195312 216.859375 Z M 13.957031 7.320312 C 10.410156 7.320312 7.574219 9.6875 7.574219 12.53125 L 7.574219 205.257812 C 7.574219 208.101562 10.410156 210.46875 13.957031 210.46875 L 127.195312 210.46875 C 130.742188 210.46875 133.578125 208.101562 133.578125 205.257812 L 133.578125 12.53125 C 133.578125 9.6875 130.742188 7.320312 127.195312 7.320312 Z M 13.957031 7.320312 " fill-opacity="1" fill-rule="nonzero"/></g><path fill="#ffffff" d="M 119.875 32.777344 L 119.875 179.574219 L 21.292969 179.574219 L 21.292969 32.777344 Z M 119.875 32.777344 " fill-opacity="1" fill-rule="nonzero"/><path fill="#032750" d="M 119.867188 180.636719 L 21.285156 180.636719 C 20.574219 180.636719 20.101562 180.160156 20.101562 179.6875 L 20.101562 32.890625 C 20.101562 32.417969 20.574219 31.945312 21.285156 31.945312 L 119.867188 31.945312 C 120.578125 31.945312 121.050781 32.417969 121.050781 32.890625 L 121.050781 179.6875 C 121.050781 180.160156 120.578125 180.636719 119.867188 180.636719 Z M 22.464844 178.503906 L 118.6875 178.503906 L 118.6875 33.839844 L 22.464844 33.839844 Z M 22.464844 178.503906 " fill-opacity="1" fill-rule="nonzero"/><path fill="#ffffff" d="M 55.800781 19.632812 C 55.800781 21.289062 57.21875 22.710938 58.875 22.710938 L 82.277344 22.710938 C 83.933594 22.710938 85.351562 21.289062 85.351562 19.632812 C 85.351562 17.976562 83.933594 16.554688 82.277344 16.554688 L 58.875 16.554688 C 57.21875 16.316406 55.800781 17.738281 55.800781 19.632812 Z M 55.800781 19.632812 " fill-opacity="1" fill-rule="nonzero"/><path fill="#032750" d="M 81.570312 23.65625 L 59.347656 23.65625 C 56.507812 23.65625 54.382812 21.765625 54.382812 19.394531 C 54.382812 17.027344 56.507812 15.132812 59.347656 15.132812 L 81.570312 15.132812 C 84.40625 15.132812 86.535156 17.027344 86.535156 19.394531 C 86.535156 21.765625 84.40625 23.65625 81.570312 23.65625 Z M 59.347656 17.503906 C 57.929688 17.503906 56.980469 18.449219 56.980469 19.632812 C 56.980469 20.816406 58.164062 21.765625 59.347656 21.765625 L 81.570312 21.765625 C 82.988281 21.765625 83.933594 20.816406 83.933594 19.632812 C 83.933594 18.449219 82.75 17.503906 81.570312 17.503906 Z M 59.347656 17.503906 " fill-opacity="1" fill-rule="nonzero"/><path fill="#ffffff" d="M 80.386719 195.316406 C 80.386719 195.859375 80.324219 196.398438 80.195312 196.933594 C 80.070312 197.464844 79.878906 197.984375 79.632812 198.484375 C 79.382812 198.988281 79.074219 199.464844 78.714844 199.917969 C 78.351562 200.371094 77.941406 200.789062 77.480469 201.175781 C 77.019531 201.558594 76.515625 201.902344 75.972656 202.207031 C 75.433594 202.507812 74.859375 202.761719 74.257812 202.972656 C 73.65625 203.179688 73.035156 203.335938 72.394531 203.441406 C 71.753906 203.550781 71.109375 203.601562 70.457031 203.601562 C 69.804688 203.601562 69.160156 203.550781 68.519531 203.441406 C 67.882812 203.335938 67.261719 203.179688 66.65625 202.972656 C 66.054688 202.761719 65.484375 202.507812 64.941406 202.207031 C 64.398438 201.902344 63.898438 201.558594 63.4375 201.175781 C 62.976562 200.789062 62.5625 200.371094 62.203125 199.917969 C 61.839844 199.464844 61.535156 198.988281 61.285156 198.484375 C 61.035156 197.984375 60.847656 197.464844 60.71875 196.933594 C 60.59375 196.398438 60.527344 195.859375 60.527344 195.316406 C 60.527344 194.769531 60.59375 194.230469 60.71875 193.699219 C 60.847656 193.164062 61.035156 192.648438 61.285156 192.144531 C 61.535156 191.640625 61.839844 191.164062 62.203125 190.710938 C 62.5625 190.257812 62.976562 189.839844 63.4375 189.457031 C 63.898438 189.070312 64.398438 188.726562 64.941406 188.425781 C 65.484375 188.121094 66.054688 187.867188 66.65625 187.660156 C 67.261719 187.449219 67.882812 187.292969 68.519531 187.1875 C 69.160156 187.082031 69.804688 187.027344 70.457031 187.027344 C 71.109375 187.027344 71.753906 187.082031 72.394531 187.1875 C 73.035156 187.292969 73.65625 187.449219 74.257812 187.660156 C 74.859375 187.867188 75.433594 188.121094 75.972656 188.425781 C 76.515625 188.726562 77.019531 189.070312 77.480469 189.457031 C 77.941406 189.839844 78.351562 190.257812 78.714844 190.710938 C 79.074219 191.164062 79.382812 191.640625 79.632812 192.144531 C 79.878906 192.648438 80.070312 193.164062 80.195312 193.699219 C 80.324219 194.230469 80.386719 194.769531 80.386719 195.316406 Z M 80.386719 195.316406 " fill-opacity="1" fill-rule="nonzero"/><path fill="#032750" d="M 70.457031 204.785156 C 64.3125 204.785156 59.347656 200.523438 59.347656 195.316406 C 59.347656 190.105469 64.3125 185.84375 70.457031 185.84375 C 76.605469 185.84375 81.570312 190.105469 81.570312 195.316406 C 81.570312 200.523438 76.605469 204.785156 70.457031 204.785156 Z M 70.457031 187.976562 C 65.730469 187.976562 61.710938 191.289062 61.710938 195.316406 C 61.710938 199.339844 65.492188 202.65625 70.457031 202.65625 C 75.421875 202.65625 79.203125 199.339844 79.203125 195.316406 C 79.203125 191.289062 75.1875 187.976562 70.457031 187.976562 Z M 70.457031 187.976562 " fill-opacity="1" fill-rule="nonzero"/></g></g></g></g></svg>