<svg xmlns="http://www.w3.org/2000/svg" xmlns:xlink="http://www.w3.org/1999/xlink" width="373" zoomAndPan="magnify" viewBox="0 0 279.75 124.499996" height="166" preserveAspectRatio="xMidYMid meet" version="1.0"><defs><g/><clipPath id="c1802fdbb5"><path d="M 224 59.730469 L 278.691406 59.730469 L 278.691406 123.6875 L 224 123.6875 Z M 224 59.730469 " clip-rule="nonzero"/></clipPath><clipPath id="62119513f6"><path d="M 0.773438 0.324219 L 271 0.324219 L 271 84 L 0.773438 84 Z M 0.773438 0.324219 " clip-rule="nonzero"/></clipPath></defs><g clip-path="url(#c1802fdbb5)"><path fill="#000000" d="M 272.703125 114.542969 L 255.808594 120.304688 C 254.125 120.878906 252.199219 120.425781 250.769531 119.121094 L 227.75 98.136719 C 227.441406 97.792969 227.273438 97.332031 227.285156 96.863281 C 227.296875 96.449219 227.449219 96.082031 227.714844 95.828125 C 229.121094 94.492188 231.222656 94.339844 232.941406 95.445312 L 240.359375 100.210938 C 240.925781 100.574219 241.65625 100.539062 242.1875 100.125 C 242.71875 99.710938 242.925781 99.003906 242.707031 98.367188 L 231.910156 66.953125 C 231.609375 66.085938 231.660156 65.144531 232.050781 64.375 C 232.355469 63.765625 232.855469 63.324219 233.445312 63.132812 C 234.804688 62.695312 236.347656 63.605469 236.878906 65.152344 L 245.054688 89.082031 C 245.335938 89.90625 246.234375 90.347656 247.0625 90.066406 C 247.886719 89.785156 248.328125 88.886719 248.046875 88.058594 L 245.878906 81.699219 C 245.613281 80.929688 245.636719 80.121094 245.945312 79.417969 C 246.234375 78.765625 246.734375 78.285156 247.363281 78.070312 C 248.710938 77.609375 250.230469 78.496094 250.757812 80.035156 L 253.253906 87.355469 C 253.480469 88.011719 254.09375 88.421875 254.75 88.421875 C 254.921875 88.421875 255.09375 88.398438 255.261719 88.339844 C 256.089844 88.058594 256.527344 87.160156 256.246094 86.332031 L 256.238281 86.304688 C 256.023438 85.671875 254.152344 80.164062 253.957031 79.542969 C 253.648438 78.105469 254.328125 76.71875 255.546875 76.300781 C 256.890625 75.839844 258.417969 76.726562 258.941406 78.265625 L 259.925781 81.148438 L 259.925781 81.152344 L 261.5625 85.941406 C 261.84375 86.769531 262.742188 87.207031 263.570312 86.929688 C 264.394531 86.648438 264.835938 85.75 264.554688 84.921875 L 262.355469 78.480469 C 262.089844 77.707031 262.113281 76.898438 262.421875 76.195312 C 262.710938 75.542969 263.214844 75.0625 263.839844 74.847656 C 264.46875 74.632812 265.15625 74.707031 265.785156 75.046875 C 266.457031 75.414062 266.972656 76.042969 267.234375 76.8125 L 269.070312 82.191406 C 272.105469 91.078125 274.261719 100.285156 275.488281 109.5625 C 275.78125 111.796875 274.613281 113.894531 272.703125 114.542969 Z M 278.621094 109.148438 C 277.371094 99.667969 275.164062 90.253906 272.0625 81.171875 L 270.226562 75.792969 C 269.707031 74.273438 268.667969 73.023438 267.300781 72.273438 C 265.886719 71.503906 264.296875 71.355469 262.820312 71.859375 C 261.5625 72.285156 260.535156 73.140625 259.855469 74.296875 C 258.359375 73.113281 256.378906 72.679688 254.527344 73.3125 C 253.179688 73.769531 252.117188 74.714844 251.460938 75.914062 C 249.992188 74.851562 248.109375 74.476562 246.34375 75.082031 C 245.480469 75.375 244.722656 75.867188 244.109375 76.527344 L 239.871094 64.128906 C 238.785156 60.960938 235.46875 59.167969 232.484375 60.125 C 231.074219 60.574219 229.917969 61.582031 229.222656 62.960938 C 228.457031 64.484375 228.347656 66.316406 228.921875 67.980469 L 238.238281 95.09375 L 234.652344 92.785156 C 231.6875 90.878906 228.023438 91.179688 225.539062 93.535156 C 224.660156 94.367188 224.160156 95.523438 224.125 96.78125 C 224.089844 98.097656 224.589844 99.398438 225.492188 100.347656 C 225.519531 100.375 225.542969 100.402344 225.574219 100.425781 L 248.636719 121.457031 C 250.25 122.925781 252.289062 123.707031 254.324219 123.707031 C 255.171875 123.707031 256.015625 123.574219 256.828125 123.296875 L 273.726562 117.535156 C 277.054688 116.398438 279.113281 112.871094 278.621094 109.148438 " fill-opacity="1" fill-rule="nonzero"/></g><path fill="#000000" d="M 230.835938 57.332031 C 230.179688 57.332031 229.566406 56.914062 229.339844 56.261719 L 226.609375 48.25 C 226.324219 47.425781 226.765625 46.527344 227.59375 46.246094 C 228.417969 45.964844 229.316406 46.402344 229.597656 47.230469 L 232.332031 55.238281 C 232.613281 56.066406 232.171875 56.964844 231.347656 57.246094 C 231.175781 57.304688 231.003906 57.332031 230.835938 57.332031 " fill-opacity="1" fill-rule="nonzero"/><path fill="#000000" d="M 225.082031 62.386719 C 224.847656 62.386719 224.613281 62.335938 224.386719 62.226562 L 216.789062 58.496094 C 216.003906 58.109375 215.683594 57.164062 216.066406 56.378906 C 216.453125 55.597656 217.398438 55.273438 218.183594 55.660156 L 225.78125 59.390625 C 226.5625 59.773438 226.886719 60.722656 226.5 61.503906 C 226.226562 62.066406 225.667969 62.386719 225.082031 62.386719 " fill-opacity="1" fill-rule="nonzero"/><path fill="#000000" d="M 216.582031 72.765625 C 215.925781 72.765625 215.3125 72.351562 215.085938 71.695312 C 214.804688 70.871094 215.246094 69.972656 216.070312 69.691406 L 224.085938 66.957031 C 224.910156 66.675781 225.808594 67.117188 226.089844 67.941406 C 226.375 68.769531 225.929688 69.664062 225.105469 69.949219 L 217.09375 72.679688 C 216.921875 72.738281 216.75 72.765625 216.582031 72.765625 " fill-opacity="1" fill-rule="nonzero"/><path fill="#000000" d="M 243.542969 63.570312 C 242.882812 63.570312 242.273438 63.15625 242.046875 62.5 C 241.765625 61.675781 242.207031 60.777344 243.035156 60.496094 L 251.046875 57.761719 C 251.871094 57.480469 252.769531 57.921875 253.050781 58.746094 C 253.332031 59.574219 252.890625 60.46875 252.066406 60.753906 L 244.054688 63.484375 C 243.882812 63.542969 243.710938 63.570312 243.542969 63.570312 " fill-opacity="1" fill-rule="nonzero"/><path fill="#000000" d="M 238.480469 57.820312 C 238.246094 57.820312 238.007812 57.769531 237.785156 57.65625 C 237.003906 57.273438 236.679688 56.324219 237.0625 55.542969 L 240.796875 47.945312 C 241.179688 47.164062 242.125 46.839844 242.914062 47.226562 C 243.695312 47.609375 244.019531 48.558594 243.632812 49.339844 L 239.902344 56.933594 C 239.625 57.496094 239.066406 57.820312 238.480469 57.820312 " fill-opacity="1" fill-rule="nonzero"/><g clip-path="url(#62119513f6)"><path fill="#000000" d="M 220.589844 83.648438 L 42.664062 83.648438 C 19.683594 83.648438 0.984375 64.957031 0.984375 41.984375 C 0.984375 19.011719 19.683594 0.324219 42.664062 0.324219 L 228.691406 0.324219 C 251.671875 0.324219 270.367188 19.011719 270.367188 41.984375 C 270.367188 49.140625 268.523438 56.199219 265.027344 62.402344 C 264.582031 63.195312 263.574219 63.476562 262.777344 63.03125 C 261.984375 62.582031 261.703125 61.574219 262.148438 60.777344 C 265.367188 55.074219 267.0625 48.574219 267.0625 41.984375 C 267.0625 20.835938 249.847656 3.628906 228.691406 3.628906 L 42.664062 3.628906 C 21.503906 3.628906 4.289062 20.835938 4.289062 41.984375 C 4.289062 63.136719 21.503906 80.34375 42.664062 80.34375 L 220.589844 80.34375 C 221.5 80.34375 222.242188 81.082031 222.242188 81.996094 C 222.242188 82.910156 221.5 83.648438 220.589844 83.648438 " fill-opacity="1" fill-rule="nonzero"/></g><g fill="#000000" fill-opacity="1"><g transform="translate(93.812815, 29.670209)"><g><path d="M 12.296875 0.96875 L 10.3125 2.3125 L 8.765625 0.046875 C 8.265625 0.203125 7.710938 0.28125 7.109375 0.28125 L 6.921875 0.28125 C 6.585938 0.28125 6.257812 0.253906 5.9375 0.203125 C 5.613281 0.160156 5.265625 0.0664062 4.890625 -0.078125 C 4.515625 -0.234375 4.171875 -0.429688 3.859375 -0.671875 C 3.546875 -0.921875 3.238281 -1.253906 2.9375 -1.671875 C 2.632812 -2.085938 2.378906 -2.566406 2.171875 -3.109375 C 1.960938 -3.660156 1.796875 -4.332031 1.671875 -5.125 C 1.546875 -5.925781 1.484375 -6.8125 1.484375 -7.78125 L 1.484375 -8.484375 C 1.484375 -9.203125 1.507812 -9.859375 1.5625 -10.453125 C 1.625 -11.054688 1.726562 -11.660156 1.875 -12.265625 C 2.03125 -12.867188 2.238281 -13.398438 2.5 -13.859375 C 2.769531 -14.316406 3.097656 -14.726562 3.484375 -15.09375 C 3.878906 -15.457031 4.363281 -15.734375 4.9375 -15.921875 C 5.519531 -16.109375 6.179688 -16.203125 6.921875 -16.203125 L 7.109375 -16.203125 C 7.847656 -16.203125 8.503906 -16.101562 9.078125 -15.90625 C 9.660156 -15.71875 10.144531 -15.441406 10.53125 -15.078125 C 10.914062 -14.710938 11.238281 -14.300781 11.5 -13.84375 C 11.769531 -13.382812 11.972656 -12.851562 12.109375 -12.25 C 12.253906 -11.644531 12.351562 -11.046875 12.40625 -10.453125 C 12.46875 -9.867188 12.5 -9.222656 12.5 -8.515625 L 12.5 -7.78125 C 12.5 -4.78125 11.921875 -2.613281 10.765625 -1.28125 Z M 7.109375 -13.828125 L 6.921875 -13.828125 C 6.179688 -13.828125 5.59375 -13.660156 5.15625 -13.328125 C 4.726562 -13.003906 4.40625 -12.453125 4.1875 -11.671875 C 3.976562 -10.890625 3.875 -9.828125 3.875 -8.484375 L 3.875 -7.78125 C 3.875 -5.875 4.117188 -4.453125 4.609375 -3.515625 C 5.109375 -2.578125 5.878906 -2.109375 6.921875 -2.109375 L 7.296875 -2.109375 L 6.015625 -3.953125 L 8 -5.296875 L 9.3125 -3.375 C 9.84375 -4.289062 10.109375 -5.757812 10.109375 -7.78125 L 10.109375 -8.515625 C 10.109375 -9.847656 10.003906 -10.898438 9.796875 -11.671875 C 9.597656 -12.453125 9.285156 -13.003906 8.859375 -13.328125 C 8.429688 -13.660156 7.847656 -13.828125 7.109375 -13.828125 Z M 7.109375 -13.828125 "/></g></g></g><g fill="#000000" fill-opacity="1"><g transform="translate(107.791799, 29.670209)"><g><path d="M 6.84375 -2.109375 C 7.21875 -2.109375 7.582031 -2.203125 7.9375 -2.390625 C 8.289062 -2.578125 8.59375 -2.804688 8.84375 -3.078125 C 9.09375 -3.359375 9.316406 -3.65625 9.515625 -3.96875 C 9.710938 -4.289062 9.859375 -4.582031 9.953125 -4.84375 C 10.046875 -5.101562 10.097656 -5.304688 10.109375 -5.453125 L 10.109375 -11.65625 L 12.5 -11.65625 L 12.5 0 L 10.109375 0 L 10.109375 -1.0625 C 9.046875 -0.164062 7.957031 0.28125 6.84375 0.28125 L 6.546875 0.28125 C 5.679688 0.28125 4.914062 0.15625 4.25 -0.09375 C 3.582031 -0.34375 3.050781 -0.679688 2.65625 -1.109375 C 2.269531 -1.546875 1.976562 -2.03125 1.78125 -2.5625 C 1.582031 -3.09375 1.484375 -3.671875 1.484375 -4.296875 L 1.484375 -11.65625 L 3.875 -11.65625 L 3.875 -4.296875 C 3.875 -3.992188 3.910156 -3.71875 3.984375 -3.46875 C 4.054688 -3.226562 4.1875 -3 4.375 -2.78125 C 4.5625 -2.570312 4.835938 -2.40625 5.203125 -2.28125 C 5.566406 -2.164062 6.015625 -2.109375 6.546875 -2.109375 Z M 6.84375 -2.109375 "/></g></g></g><g fill="#000000" fill-opacity="1"><g transform="translate(121.770784, 29.670209)"><g><path d="M 3.46875 -11.65625 L 8.203125 -11.65625 L 8.203125 -2.390625 L 11.3125 -2.390625 L 11.3125 0 L 2.671875 0 L 2.671875 -2.390625 L 5.8125 -2.390625 L 5.8125 -9.265625 L 3.46875 -9.265625 Z M 5.8125 -13.484375 C 5.476562 -13.828125 5.3125 -14.25 5.3125 -14.75 C 5.3125 -15.25 5.476562 -15.671875 5.8125 -16.015625 C 6.15625 -16.359375 6.578125 -16.53125 7.078125 -16.53125 C 7.578125 -16.53125 8 -16.359375 8.34375 -16.015625 C 8.695312 -15.671875 8.875 -15.25 8.875 -14.75 C 8.875 -14.25 8.695312 -13.828125 8.34375 -13.484375 C 8 -13.140625 7.578125 -12.96875 7.078125 -12.96875 C 6.578125 -12.96875 6.15625 -13.140625 5.8125 -13.484375 Z M 5.8125 -13.484375 "/></g></g></g><g fill="#000000" fill-opacity="1"><g transform="translate(135.749768, 29.670209)"><g><path d="M 3.875 -5.15625 L 3.875 -4.296875 C 3.875 -4.066406 3.925781 -3.828125 4.03125 -3.578125 C 4.144531 -3.335938 4.3125 -3.101562 4.53125 -2.875 C 4.757812 -2.644531 5.078125 -2.457031 5.484375 -2.3125 C 5.890625 -2.175781 6.351562 -2.109375 6.875 -2.109375 L 7.125 -2.109375 C 8 -2.109375 8.664062 -2.222656 9.125 -2.453125 C 9.582031 -2.691406 9.878906 -2.972656 10.015625 -3.296875 L 12.234375 -2.4375 C 11.910156 -1.59375 11.3125 -0.925781 10.4375 -0.4375 C 9.5625 0.0390625 8.457031 0.28125 7.125 0.28125 L 6.875 0.28125 C 6.050781 0.28125 5.296875 0.148438 4.609375 -0.109375 C 3.921875 -0.367188 3.351562 -0.710938 2.90625 -1.140625 C 2.457031 -1.578125 2.109375 -2.066406 1.859375 -2.609375 C 1.609375 -3.160156 1.484375 -3.722656 1.484375 -4.296875 L 1.484375 -7.375 C 1.484375 -8.707031 1.960938 -9.800781 2.921875 -10.65625 C 3.878906 -11.507812 5.195312 -11.9375 6.875 -11.9375 L 7.125 -11.9375 C 8.800781 -11.9375 10.113281 -11.507812 11.0625 -10.65625 C 12.019531 -9.800781 12.5 -8.707031 12.5 -7.375 L 12.5 -5.15625 Z M 3.875 -7.546875 L 10.109375 -7.546875 C 10.085938 -7.921875 9.984375 -8.242188 9.796875 -8.515625 C 9.617188 -8.796875 9.378906 -9.003906 9.078125 -9.140625 C 8.785156 -9.285156 8.476562 -9.390625 8.15625 -9.453125 C 7.832031 -9.515625 7.488281 -9.546875 7.125 -9.546875 L 6.875 -9.546875 C 6.519531 -9.546875 6.179688 -9.515625 5.859375 -9.453125 C 5.535156 -9.390625 5.222656 -9.285156 4.921875 -9.140625 C 4.617188 -9.003906 4.375 -8.796875 4.1875 -8.515625 C 4 -8.242188 3.894531 -7.921875 3.875 -7.546875 Z M 3.875 -7.546875 "/></g></g></g><g fill="#000000" fill-opacity="1"><g transform="translate(149.728752, 29.670209)"><g><path d="M 8.21875 -9.546875 L 7.96875 -9.546875 C 7.46875 -9.546875 6.957031 -9.410156 6.4375 -9.140625 C 5.925781 -8.867188 5.488281 -8.53125 5.125 -8.125 C 4.757812 -7.71875 4.457031 -7.265625 4.21875 -6.765625 C 3.988281 -6.273438 3.875 -5.8125 3.875 -5.375 L 3.875 0 L 1.484375 0 L 1.484375 -11.65625 L 3.875 -11.65625 L 3.875 -10.21875 C 5.132812 -11.363281 6.5 -11.9375 7.96875 -11.9375 L 8.21875 -11.9375 C 10.15625 -11.9375 11.546875 -11.382812 12.390625 -10.28125 L 10.5 -8.828125 C 10.125 -9.304688 9.363281 -9.546875 8.21875 -9.546875 Z M 8.21875 -9.546875 "/></g></g></g><g fill="#000000" fill-opacity="1"><g transform="translate(163.707736, 29.670209)"><g><path d="M 7.28125 -9.53125 L 6.671875 -9.53125 C 4.804688 -9.53125 3.875 -8.46875 3.875 -6.34375 L 3.875 -5.5 C 3.875 -3.238281 4.816406 -2.109375 6.703125 -2.109375 L 7.234375 -2.109375 C 8.160156 -2.109375 8.867188 -2.375 9.359375 -2.90625 C 9.859375 -3.4375 10.109375 -4.300781 10.109375 -5.5 L 10.109375 -6.359375 C 10.109375 -8.472656 9.164062 -9.53125 7.28125 -9.53125 Z M 12.5 -6.359375 L 12.5 -5.5 C 12.5 -4.664062 12.390625 -3.898438 12.171875 -3.203125 C 11.960938 -2.515625 11.644531 -1.90625 11.21875 -1.375 C 10.800781 -0.851562 10.25 -0.445312 9.5625 -0.15625 C 8.882812 0.132812 8.109375 0.28125 7.234375 0.28125 L 6.703125 0.28125 C 5.835938 0.28125 5.066406 0.132812 4.390625 -0.15625 C 3.710938 -0.457031 3.160156 -0.875 2.734375 -1.40625 C 2.316406 -1.9375 2.003906 -2.546875 1.796875 -3.234375 C 1.585938 -3.929688 1.484375 -4.6875 1.484375 -5.5 L 1.484375 -6.34375 C 1.484375 -8.019531 1.925781 -9.367188 2.8125 -10.390625 C 3.707031 -11.410156 4.992188 -11.921875 6.671875 -11.921875 L 7.28125 -11.921875 C 8.957031 -11.921875 10.242188 -11.410156 11.140625 -10.390625 C 12.046875 -9.367188 12.5 -8.023438 12.5 -6.359375 Z M 12.5 -6.359375 "/></g></g></g><g fill="#000000" fill-opacity="1"><g transform="translate(58.871042, 61.81991)"><g><path d="M 3.46875 -11.65625 L 8.203125 -11.65625 L 8.203125 -2.390625 L 11.3125 -2.390625 L 11.3125 0 L 2.671875 0 L 2.671875 -2.390625 L 5.8125 -2.390625 L 5.8125 -9.265625 L 3.46875 -9.265625 Z M 5.8125 -13.484375 C 5.476562 -13.828125 5.3125 -14.25 5.3125 -14.75 C 5.3125 -15.25 5.476562 -15.671875 5.8125 -16.015625 C 6.15625 -16.359375 6.578125 -16.53125 7.078125 -16.53125 C 7.578125 -16.53125 8 -16.359375 8.34375 -16.015625 C 8.695312 -15.671875 8.875 -15.25 8.875 -14.75 C 8.875 -14.25 8.695312 -13.828125 8.34375 -13.484375 C 8 -13.140625 7.578125 -12.96875 7.078125 -12.96875 C 6.578125 -12.96875 6.15625 -13.140625 5.8125 -13.484375 Z M 5.8125 -13.484375 "/></g></g></g><g fill="#000000" fill-opacity="1"><g transform="translate(72.850027, 61.81991)"><g><path d="M 10.109375 -7.59375 C 10.109375 -8.894531 9.113281 -9.546875 7.125 -9.546875 L 6.875 -9.546875 C 6.34375 -9.546875 5.832031 -9.34375 5.34375 -8.9375 C 4.863281 -8.539062 4.5 -8.113281 4.25 -7.65625 C 4 -7.195312 3.875 -6.816406 3.875 -6.515625 L 3.875 0 L 1.484375 0 L 1.484375 -11.65625 L 3.875 -11.65625 L 3.875 -10.828125 C 4.8125 -11.566406 5.8125 -11.9375 6.875 -11.9375 L 7.125 -11.9375 C 8.820312 -11.9375 10.140625 -11.539062 11.078125 -10.75 C 12.023438 -9.96875 12.5 -8.914062 12.5 -7.59375 L 12.5 0 L 10.109375 0 Z M 10.109375 -7.59375 "/></g></g></g><g fill="#000000" fill-opacity="1"><g transform="translate(86.829011, 61.81991)"><g><path d="M 7.125 -2.109375 C 8.007812 -2.109375 8.726562 -2.203125 9.28125 -2.390625 C 9.832031 -2.578125 10.109375 -2.816406 10.109375 -3.109375 L 10.109375 -3.59375 C 10.109375 -3.695312 10.046875 -3.820312 9.921875 -3.96875 C 9.796875 -4.125 9.640625 -4.226562 9.453125 -4.28125 L 4.40625 -5.609375 C 3.96875 -5.722656 3.582031 -5.898438 3.25 -6.140625 C 2.914062 -6.378906 2.65625 -6.644531 2.46875 -6.9375 C 2.289062 -7.226562 2.15625 -7.515625 2.0625 -7.796875 C 1.976562 -8.085938 1.9375 -8.367188 1.9375 -8.640625 L 1.9375 -8.765625 C 1.9375 -9.046875 1.972656 -9.316406 2.046875 -9.578125 C 2.128906 -9.835938 2.28125 -10.113281 2.5 -10.40625 C 2.71875 -10.707031 3 -10.96875 3.34375 -11.1875 C 3.695312 -11.40625 4.175781 -11.582031 4.78125 -11.71875 C 5.382812 -11.863281 6.082031 -11.9375 6.875 -11.9375 L 7.125 -11.9375 C 8.101562 -11.9375 9.050781 -11.734375 9.96875 -11.328125 C 10.882812 -10.929688 11.570312 -10.363281 12.03125 -9.625 L 10.015625 -8.34375 C 9.816406 -8.644531 9.453125 -8.921875 8.921875 -9.171875 C 8.398438 -9.421875 7.800781 -9.546875 7.125 -9.546875 L 6.875 -9.546875 C 6.5 -9.546875 6.15625 -9.519531 5.84375 -9.46875 C 5.53125 -9.425781 5.285156 -9.375 5.109375 -9.3125 C 4.929688 -9.25 4.78125 -9.175781 4.65625 -9.09375 C 4.53125 -9.019531 4.441406 -8.953125 4.390625 -8.890625 C 4.347656 -8.835938 4.328125 -8.796875 4.328125 -8.765625 L 4.328125 -8.640625 C 4.328125 -8.546875 4.378906 -8.414062 4.484375 -8.25 C 4.585938 -8.09375 4.75 -7.984375 4.96875 -7.921875 L 10.046875 -6.609375 C 10.734375 -6.429688 11.3125 -6.050781 11.78125 -5.46875 C 12.257812 -4.894531 12.5 -4.269531 12.5 -3.59375 L 12.5 -3.109375 C 12.5 -2.515625 12.351562 -1.992188 12.0625 -1.546875 C 11.78125 -1.097656 11.382812 -0.742188 10.875 -0.484375 C 10.363281 -0.222656 9.796875 -0.03125 9.171875 0.09375 C 8.546875 0.21875 7.863281 0.28125 7.125 0.28125 L 6.40625 0.28125 C 5.976562 0.28125 5.535156 0.226562 5.078125 0.125 C 4.628906 0.0195312 4.191406 -0.144531 3.765625 -0.375 C 3.335938 -0.601562 2.953125 -0.875 2.609375 -1.1875 C 2.273438 -1.5 2.003906 -1.878906 1.796875 -2.328125 C 1.585938 -2.773438 1.484375 -3.253906 1.484375 -3.765625 L 3.875 -3.765625 C 3.875 -3.660156 3.90625 -3.53125 3.96875 -3.375 C 4.03125 -3.21875 4.140625 -3.035156 4.296875 -2.828125 C 4.453125 -2.628906 4.710938 -2.457031 5.078125 -2.3125 C 5.453125 -2.175781 5.894531 -2.109375 6.40625 -2.109375 Z M 7.125 -2.109375 "/></g></g></g><g fill="#000000" fill-opacity="1"><g transform="translate(100.807995, 61.81991)"><g><path d="M 9.984375 -8.515625 C 9.617188 -9.191406 8.664062 -9.53125 7.125 -9.53125 L 6.875 -9.53125 C 6.320312 -9.53125 5.84375 -9.457031 5.4375 -9.3125 C 5.039062 -9.164062 4.726562 -8.957031 4.5 -8.6875 C 4.28125 -8.425781 4.117188 -8.132812 4.015625 -7.8125 C 3.921875 -7.5 3.875 -7.140625 3.875 -6.734375 L 3.875 -4.921875 C 3.875 -4.078125 4.15625 -3.394531 4.71875 -2.875 C 5.289062 -2.363281 6.007812 -2.109375 6.875 -2.109375 L 7.125 -2.109375 C 7.8125 -2.109375 8.410156 -2.195312 8.921875 -2.375 C 9.441406 -2.5625 9.796875 -2.847656 9.984375 -3.234375 L 12.15625 -2.203125 C 11.757812 -1.398438 11.128906 -0.785156 10.265625 -0.359375 C 9.398438 0.0664062 8.351562 0.28125 7.125 0.28125 L 6.875 0.28125 C 5.363281 0.28125 4.085938 -0.207031 3.046875 -1.1875 C 2.003906 -2.164062 1.484375 -3.410156 1.484375 -4.921875 L 1.484375 -6.734375 C 1.484375 -8.242188 1.945312 -9.484375 2.875 -10.453125 C 3.8125 -11.429688 5.144531 -11.921875 6.875 -11.921875 L 7.125 -11.921875 C 8.519531 -11.921875 9.601562 -11.710938 10.375 -11.296875 C 11.144531 -10.890625 11.742188 -10.28125 12.171875 -9.46875 Z M 9.984375 -8.515625 "/></g></g></g><g fill="#000000" fill-opacity="1"><g transform="translate(114.786979, 61.81991)"><g><path d="M 8.21875 -9.546875 L 7.96875 -9.546875 C 7.46875 -9.546875 6.957031 -9.410156 6.4375 -9.140625 C 5.925781 -8.867188 5.488281 -8.53125 5.125 -8.125 C 4.757812 -7.71875 4.457031 -7.265625 4.21875 -6.765625 C 3.988281 -6.273438 3.875 -5.8125 3.875 -5.375 L 3.875 0 L 1.484375 0 L 1.484375 -11.65625 L 3.875 -11.65625 L 3.875 -10.21875 C 5.132812 -11.363281 6.5 -11.9375 7.96875 -11.9375 L 8.21875 -11.9375 C 10.15625 -11.9375 11.546875 -11.382812 12.390625 -10.28125 L 10.5 -8.828125 C 10.125 -9.304688 9.363281 -9.546875 8.21875 -9.546875 Z M 8.21875 -9.546875 "/></g></g></g><g fill="#000000" fill-opacity="1"><g transform="translate(128.765964, 61.81991)"><g><path d="M 3.46875 -11.65625 L 8.203125 -11.65625 L 8.203125 -2.390625 L 11.3125 -2.390625 L 11.3125 0 L 2.671875 0 L 2.671875 -2.390625 L 5.8125 -2.390625 L 5.8125 -9.265625 L 3.46875 -9.265625 Z M 5.8125 -13.484375 C 5.476562 -13.828125 5.3125 -14.25 5.3125 -14.75 C 5.3125 -15.25 5.476562 -15.671875 5.8125 -16.015625 C 6.15625 -16.359375 6.578125 -16.53125 7.078125 -16.53125 C 7.578125 -16.53125 8 -16.359375 8.34375 -16.015625 C 8.695312 -15.671875 8.875 -15.25 8.875 -14.75 C 8.875 -14.25 8.695312 -13.828125 8.34375 -13.484375 C 8 -13.140625 7.578125 -12.96875 7.078125 -12.96875 C 6.578125 -12.96875 6.15625 -13.140625 5.8125 -13.484375 Z M 5.8125 -13.484375 "/></g></g></g><g fill="#000000" fill-opacity="1"><g transform="translate(142.744948, 61.81991)"><g><path d="M 6.875 -11.9375 L 7.125 -11.9375 C 8.007812 -11.9375 8.796875 -11.796875 9.484375 -11.515625 C 10.179688 -11.242188 10.742188 -10.867188 11.171875 -10.390625 C 11.609375 -9.921875 11.9375 -9.375 12.15625 -8.75 C 12.382812 -8.132812 12.5 -7.460938 12.5 -6.734375 L 12.5 -5.140625 C 12.5 -3.546875 12.015625 -2.242188 11.046875 -1.234375 C 10.085938 -0.222656 8.78125 0.28125 7.125 0.28125 L 6.875 0.28125 C 5.78125 0.28125 4.78125 -0.015625 3.875 -0.609375 L 3.875 0 L 1.484375 0 L 1.484375 -15.921875 L 3.875 -15.921875 L 3.875 -11.21875 C 4.707031 -11.695312 5.707031 -11.9375 6.875 -11.9375 Z M 3.875 -5.140625 C 3.875 -4.296875 4.164062 -3.578125 4.75 -2.984375 C 5.332031 -2.398438 6.039062 -2.109375 6.875 -2.109375 L 7.125 -2.109375 C 7.59375 -2.109375 8.003906 -2.164062 8.359375 -2.28125 C 8.710938 -2.40625 9 -2.566406 9.21875 -2.765625 C 9.4375 -2.960938 9.613281 -3.195312 9.75 -3.46875 C 9.882812 -3.738281 9.976562 -4.007812 10.03125 -4.28125 C 10.082031 -4.550781 10.109375 -4.835938 10.109375 -5.140625 L 10.109375 -6.734375 C 10.109375 -7.109375 10.0625 -7.453125 9.96875 -7.765625 C 9.882812 -8.085938 9.734375 -8.382812 9.515625 -8.65625 C 9.304688 -8.9375 9 -9.15625 8.59375 -9.3125 C 8.1875 -9.46875 7.695312 -9.546875 7.125 -9.546875 L 6.875 -9.546875 C 5.8125 -9.546875 5.046875 -9.289062 4.578125 -8.78125 C 4.109375 -8.269531 3.875 -7.585938 3.875 -6.734375 Z M 3.875 -5.140625 "/></g></g></g><g fill="#000000" fill-opacity="1"><g transform="translate(156.723932, 61.81991)"><g><path d="M 3.46875 -11.65625 L 8.203125 -11.65625 L 8.203125 -2.390625 L 11.3125 -2.390625 L 11.3125 0 L 2.671875 0 L 2.671875 -2.390625 L 5.8125 -2.390625 L 5.8125 -9.265625 L 3.46875 -9.265625 Z M 5.8125 -13.484375 C 5.476562 -13.828125 5.3125 -14.25 5.3125 -14.75 C 5.3125 -15.25 5.476562 -15.671875 5.8125 -16.015625 C 6.15625 -16.359375 6.578125 -16.53125 7.078125 -16.53125 C 7.578125 -16.53125 8 -16.359375 8.34375 -16.015625 C 8.695312 -15.671875 8.875 -15.25 8.875 -14.75 C 8.875 -14.25 8.695312 -13.828125 8.34375 -13.484375 C 8 -13.140625 7.578125 -12.96875 7.078125 -12.96875 C 6.578125 -12.96875 6.15625 -13.140625 5.8125 -13.484375 Z M 5.8125 -13.484375 "/></g></g></g><g fill="#000000" fill-opacity="1"><g transform="translate(170.702916, 61.81991)"><g><path d="M 8.21875 -9.546875 L 7.96875 -9.546875 C 7.46875 -9.546875 6.957031 -9.410156 6.4375 -9.140625 C 5.925781 -8.867188 5.488281 -8.53125 5.125 -8.125 C 4.757812 -7.71875 4.457031 -7.265625 4.21875 -6.765625 C 3.988281 -6.273438 3.875 -5.8125 3.875 -5.375 L 3.875 0 L 1.484375 0 L 1.484375 -11.65625 L 3.875 -11.65625 L 3.875 -10.21875 C 5.132812 -11.363281 6.5 -11.9375 7.96875 -11.9375 L 8.21875 -11.9375 C 10.15625 -11.9375 11.546875 -11.382812 12.390625 -10.28125 L 10.5 -8.828125 C 10.125 -9.304688 9.363281 -9.546875 8.21875 -9.546875 Z M 8.21875 -9.546875 "/></g></g></g><g fill="#000000" fill-opacity="1"><g transform="translate(184.681901, 61.81991)"><g><path d="M 7.34375 -11.015625 C 7.65625 -11.296875 7.96875 -11.503906 8.28125 -11.640625 C 8.601562 -11.785156 8.84375 -11.867188 9 -11.890625 C 9.15625 -11.921875 9.347656 -11.9375 9.578125 -11.9375 L 9.734375 -11.9375 C 10.765625 -11.9375 11.613281 -11.632812 12.28125 -11.03125 C 12.945312 -10.425781 13.28125 -9.632812 13.28125 -8.65625 L 13.28125 0 L 10.890625 0 L 10.890625 -8.65625 C 10.890625 -8.738281 10.875 -8.820312 10.84375 -8.90625 C 10.820312 -8.988281 10.773438 -9.082031 10.703125 -9.1875 C 10.640625 -9.289062 10.519531 -9.375 10.34375 -9.4375 C 10.175781 -9.507812 9.972656 -9.546875 9.734375 -9.546875 L 9.578125 -9.546875 C 9.242188 -9.546875 8.960938 -9.421875 8.734375 -9.171875 C 8.515625 -8.929688 8.367188 -8.679688 8.296875 -8.421875 C 8.234375 -8.171875 8.203125 -7.929688 8.203125 -7.703125 L 8.203125 0 L 5.8125 0 L 5.8125 -8.65625 C 5.8125 -8.976562 5.742188 -9.207031 5.609375 -9.34375 C 5.484375 -9.476562 5.253906 -9.546875 4.921875 -9.546875 L 4.75 -9.546875 C 4.21875 -9.546875 3.816406 -9.351562 3.546875 -8.96875 C 3.273438 -8.582031 3.140625 -8.191406 3.140625 -7.796875 L 3.140625 0 L 0.75 0 L 0.75 -11.65625 L 3.140625 -11.65625 L 3.140625 -11.421875 C 3.710938 -11.710938 4.25 -11.882812 4.75 -11.9375 L 4.921875 -11.9375 C 5.929688 -11.9375 6.738281 -11.628906 7.34375 -11.015625 Z M 7.34375 -11.015625 "/></g></g></g><g fill="#000000" fill-opacity="1"><g transform="translate(198.660885, 61.81991)"><g><path d="M 3.875 -5.15625 L 3.875 -4.296875 C 3.875 -4.066406 3.925781 -3.828125 4.03125 -3.578125 C 4.144531 -3.335938 4.3125 -3.101562 4.53125 -2.875 C 4.757812 -2.644531 5.078125 -2.457031 5.484375 -2.3125 C 5.890625 -2.175781 6.351562 -2.109375 6.875 -2.109375 L 7.125 -2.109375 C 8 -2.109375 8.664062 -2.222656 9.125 -2.453125 C 9.582031 -2.691406 9.878906 -2.972656 10.015625 -3.296875 L 12.234375 -2.4375 C 11.910156 -1.59375 11.3125 -0.925781 10.4375 -0.4375 C 9.5625 0.0390625 8.457031 0.28125 7.125 0.28125 L 6.875 0.28125 C 6.050781 0.28125 5.296875 0.148438 4.609375 -0.109375 C 3.921875 -0.367188 3.351562 -0.710938 2.90625 -1.140625 C 2.457031 -1.578125 2.109375 -2.066406 1.859375 -2.609375 C 1.609375 -3.160156 1.484375 -3.722656 1.484375 -4.296875 L 1.484375 -7.375 C 1.484375 -8.707031 1.960938 -9.800781 2.921875 -10.65625 C 3.878906 -11.507812 5.195312 -11.9375 6.875 -11.9375 L 7.125 -11.9375 C 8.800781 -11.9375 10.113281 -11.507812 11.0625 -10.65625 C 12.019531 -9.800781 12.5 -8.707031 12.5 -7.375 L 12.5 -5.15625 Z M 3.875 -7.546875 L 10.109375 -7.546875 C 10.085938 -7.921875 9.984375 -8.242188 9.796875 -8.515625 C 9.617188 -8.796875 9.378906 -9.003906 9.078125 -9.140625 C 8.785156 -9.285156 8.476562 -9.390625 8.15625 -9.453125 C 7.832031 -9.515625 7.488281 -9.546875 7.125 -9.546875 L 6.875 -9.546875 C 6.519531 -9.546875 6.179688 -9.515625 5.859375 -9.453125 C 5.535156 -9.390625 5.222656 -9.285156 4.921875 -9.140625 C 4.617188 -9.003906 4.375 -8.796875 4.1875 -8.515625 C 4 -8.242188 3.894531 -7.921875 3.875 -7.546875 Z M 3.875 -7.546875 "/></g></g></g></svg>