<svg xmlns="http://www.w3.org/2000/svg" xmlns:xlink="http://www.w3.org/1999/xlink" width="400" zoomAndPan="magnify" viewBox="0 0 300 312.749988" height="417" preserveAspectRatio="xMidYMid meet" version="1.0"><defs><g/><clipPath id="4009901a5f"><path d="M 9.203125 0.289062 L 290.980469 0.289062 L 290.980469 252.476562 L 9.203125 252.476562 Z M 9.203125 0.289062 " clip-rule="nonzero"/></clipPath><clipPath id="b52f0d8fc1"><path d="M 109 134 L 125 134 L 125 148.15625 L 109 148.15625 Z M 109 134 " clip-rule="nonzero"/></clipPath><clipPath id="f7ca2737ec"><path d="M 85.964844 98 L 100 98 L 100 113 L 85.964844 113 Z M 85.964844 98 " clip-rule="nonzero"/></clipPath><clipPath id="d8b248f670"><path d="M 131 48 L 186 48 L 186 148.15625 L 131 148.15625 Z M 131 48 " clip-rule="nonzero"/></clipPath><clipPath id="24c2c051fc"><path d="M 200 98 L 214.113281 98 L 214.113281 113 L 200 113 Z M 200 98 " clip-rule="nonzero"/></clipPath><clipPath id="5bec100bad"><path d="M 200 40 L 214.113281 40 L 214.113281 55 L 200 55 Z M 200 40 " clip-rule="nonzero"/></clipPath><clipPath id="671c33e0a4"><path d="M 159 20.011719 L 174 20.011719 L 174 35 L 159 35 Z M 159 20.011719 " clip-rule="nonzero"/></clipPath></defs><g clip-path="url(#4009901a5f)"><path fill="#3e3e41" d="M 150.089844 190.460938 C 147.800781 190.460938 145.9375 188.597656 145.9375 186.3125 C 145.9375 184.023438 147.800781 182.160156 150.089844 182.160156 C 152.382812 182.160156 154.246094 184.023438 154.246094 186.3125 C 154.246094 188.597656 152.382812 190.460938 150.089844 190.460938 Z M 150.089844 176.417969 C 144.621094 176.417969 140.183594 180.859375 140.183594 186.3125 C 140.183594 191.773438 144.621094 196.203125 150.089844 196.203125 C 155.5625 196.203125 159.996094 191.773438 159.996094 186.3125 C 159.996094 180.859375 155.5625 176.417969 150.089844 176.417969 Z M 270.097656 204.539062 L 30.082031 204.539062 C 21.738281 204.539062 14.953125 197.292969 14.953125 188.375 L 14.953125 168.085938 L 285.226562 168.085938 L 285.226562 188.375 C 285.226562 197.292969 278.445312 204.539062 270.097656 204.539062 Z M 183.640625 246.734375 L 116.542969 246.734375 L 128.964844 210.28125 L 171.21875 210.28125 Z M 30.082031 6.042969 L 270.097656 6.042969 C 278.445312 6.042969 285.226562 13.289062 285.226562 22.207031 L 285.226562 162.34375 L 14.953125 162.34375 L 14.953125 22.207031 C 14.953125 13.289062 21.738281 6.042969 30.082031 6.042969 Z M 270.097656 0.300781 L 30.082031 0.300781 C 18.570312 0.300781 9.203125 10.128906 9.203125 22.207031 L 9.203125 188.375 C 9.203125 200.453125 18.570312 210.28125 30.082031 210.28125 L 122.890625 210.28125 L 109.804688 248.683594 C 109.511719 249.558594 109.648438 250.523438 110.1875 251.277344 C 110.734375 252.027344 111.601562 252.476562 112.535156 252.476562 L 187.648438 252.476562 C 188.582031 252.476562 189.445312 252.027344 189.996094 251.277344 C 190.535156 250.523438 190.671875 249.558594 190.378906 248.683594 L 177.292969 210.28125 L 270.097656 210.28125 C 281.613281 210.28125 290.980469 200.453125 290.980469 188.375 L 290.980469 22.207031 C 290.980469 10.128906 281.613281 0.300781 270.097656 0.300781 " fill-opacity="1" fill-rule="nonzero"/></g><g clip-path="url(#b52f0d8fc1)"><path fill="#3e3e41" d="M 117 134.140625 C 113.097656 134.140625 109.992188 137.246094 109.992188 141.148438 C 109.992188 145.054688 113.097656 148.15625 117 148.15625 C 120.90625 148.15625 124.007812 145.054688 124.007812 141.148438 C 124.007812 137.246094 120.90625 134.140625 117 134.140625 Z M 117 144.152344 C 115.300781 144.152344 113.996094 142.851562 113.996094 141.148438 C 113.996094 139.449219 115.300781 138.144531 117 138.144531 C 118.703125 138.144531 120.003906 139.449219 120.003906 141.148438 C 120.003906 142.851562 118.703125 144.152344 117 144.152344 Z M 117 144.152344 " fill-opacity="1" fill-rule="nonzero"/></g><g clip-path="url(#f7ca2737ec)"><path fill="#3e3e41" d="M 92.972656 98.101562 C 89.070312 98.101562 85.964844 101.203125 85.964844 105.109375 C 85.964844 109.011719 89.070312 112.117188 92.972656 112.117188 C 96.878906 112.117188 99.980469 109.011719 99.980469 105.109375 C 99.980469 101.203125 96.878906 98.101562 92.972656 98.101562 Z M 92.972656 108.113281 C 91.269531 108.113281 89.96875 106.808594 89.96875 105.109375 C 89.96875 103.40625 91.269531 102.105469 92.972656 102.105469 C 94.675781 102.105469 95.976562 103.40625 95.976562 105.109375 C 95.976562 106.808594 94.675781 108.113281 92.972656 108.113281 Z M 92.972656 108.113281 " fill-opacity="1" fill-rule="nonzero"/></g><path fill="#3e3e41" d="M 127.210938 108.914062 L 116.601562 115.019531 L 103.585938 108.210938 C 103.183594 109.511719 102.585938 110.714844 101.785156 111.816406 L 115 118.722656 L 115 130.335938 C 115.597656 130.238281 116.300781 130.136719 117 130.136719 C 117.703125 130.136719 118.402344 130.238281 119.003906 130.335938 L 119.003906 118.324219 L 129.316406 112.316406 C 128.214844 111.414062 127.511719 110.214844 127.210938 108.914062 Z M 127.210938 108.914062 " fill-opacity="1" fill-rule="nonzero"/><path fill="#3e3e41" d="M 196.691406 108.613281 L 187.28125 113.316406 C 188.28125 114.21875 188.882812 115.519531 189.085938 116.921875 L 198.695312 112.117188 C 197.792969 111.113281 197.09375 109.914062 196.691406 108.613281 Z M 196.691406 108.613281 " fill-opacity="1" fill-rule="nonzero"/><g clip-path="url(#d8b248f670)"><path fill="#3e3e41" d="M 184.078125 115.921875 L 169.0625 107.511719 L 169.0625 88.6875 L 184.078125 80.28125 C 184.679688 79.878906 185.078125 79.277344 185.078125 78.578125 L 185.078125 59.554688 C 185.078125 58.855469 184.679688 58.152344 184.078125 57.855469 L 167.058594 48.34375 C 166.457031 48.042969 165.757812 48.042969 165.054688 48.34375 L 148.035156 57.855469 C 147.4375 58.253906 147.035156 58.855469 147.035156 59.554688 L 147.035156 78.476562 L 132.019531 86.886719 C 131.417969 87.289062 131.015625 87.886719 131.015625 88.589844 L 131.015625 107.609375 C 131.015625 108.3125 131.417969 109.011719 132.019531 109.3125 L 147.035156 117.722656 L 147.035156 136.644531 C 147.035156 137.34375 147.4375 138.046875 148.035156 138.347656 C 148.035156 138.347656 165.054688 147.855469 165.054688 147.855469 C 165.65625 148.15625 166.457031 148.15625 167.058594 147.855469 L 184.078125 138.347656 C 184.679688 137.945312 185.078125 137.34375 185.078125 136.644531 L 185.078125 117.621094 C 185.078125 116.921875 184.679688 116.222656 184.078125 115.921875 Z M 166.058594 52.347656 L 181.074219 60.757812 L 181.074219 77.476562 L 166.15625 85.886719 L 151.039062 77.375 L 151.039062 60.757812 Z M 135.023438 89.789062 L 149.9375 81.378906 L 165.054688 89.789062 L 165.054688 106.308594 L 149.9375 114.71875 L 135.023438 106.410156 Z M 181.074219 135.441406 L 166.058594 143.851562 L 151.039062 135.441406 L 151.039062 118.824219 L 166.058594 110.414062 L 181.074219 118.824219 Z M 181.074219 135.441406 " fill-opacity="1" fill-rule="nonzero"/></g><g clip-path="url(#24c2c051fc)"><path fill="#3e3e41" d="M 207.105469 98.101562 C 203.199219 98.101562 200.097656 101.203125 200.097656 105.109375 C 200.097656 109.011719 203.199219 112.117188 207.105469 112.117188 C 211.007812 112.117188 214.113281 109.011719 214.113281 105.109375 C 214.113281 101.203125 211.007812 98.101562 207.105469 98.101562 Z M 207.105469 108.113281 C 205.402344 108.113281 204.101562 106.808594 204.101562 105.109375 C 204.101562 103.40625 205.402344 102.105469 207.105469 102.105469 C 208.808594 102.105469 210.109375 103.40625 210.109375 105.109375 C 210.109375 106.808594 208.808594 108.113281 207.105469 108.113281 Z M 207.105469 108.113281 " fill-opacity="1" fill-rule="nonzero"/></g><g clip-path="url(#5bec100bad)"><path fill="#3e3e41" d="M 207.105469 54.050781 C 211.007812 54.050781 214.113281 50.945312 214.113281 47.042969 C 214.113281 43.136719 211.007812 40.03125 207.105469 40.03125 C 203.199219 40.03125 200.097656 43.136719 200.097656 47.042969 C 200.097656 50.945312 203.199219 54.050781 207.105469 54.050781 Z M 207.105469 44.039062 C 208.808594 44.039062 210.109375 45.339844 210.109375 47.042969 C 210.109375 48.742188 208.808594 50.042969 207.105469 50.042969 C 205.402344 50.042969 204.101562 48.742188 204.101562 47.042969 C 204.101562 45.339844 205.402344 44.039062 207.105469 44.039062 Z M 207.105469 44.039062 " fill-opacity="1" fill-rule="nonzero"/></g><path fill="#3e3e41" d="M 127.011719 53.046875 C 130.917969 53.046875 134.019531 49.945312 134.019531 46.039062 C 134.019531 42.136719 130.917969 39.03125 127.011719 39.03125 C 123.109375 39.03125 120.003906 42.136719 120.003906 46.039062 C 120.003906 49.945312 123.109375 53.046875 127.011719 53.046875 Z M 127.011719 43.035156 C 128.714844 43.035156 130.015625 44.339844 130.015625 46.039062 C 130.015625 47.742188 128.714844 49.042969 127.011719 49.042969 C 125.3125 49.042969 124.007812 47.742188 124.007812 46.039062 C 124.007812 44.339844 125.3125 43.035156 127.011719 43.035156 Z M 127.011719 43.035156 " fill-opacity="1" fill-rule="nonzero"/><g clip-path="url(#671c33e0a4)"><path fill="#3e3e41" d="M 166.058594 34.027344 C 169.960938 34.027344 173.066406 30.921875 173.066406 27.019531 C 173.066406 23.113281 169.960938 20.011719 166.058594 20.011719 C 162.152344 20.011719 159.050781 23.113281 159.050781 27.019531 C 159.050781 30.921875 162.152344 34.027344 166.058594 34.027344 Z M 166.058594 24.015625 C 167.757812 24.015625 169.0625 25.316406 169.0625 27.019531 C 169.0625 28.71875 167.757812 30.023438 166.058594 30.023438 C 164.355469 30.023438 163.054688 28.71875 163.054688 27.019531 C 163.054688 25.316406 164.355469 24.015625 166.058594 24.015625 Z M 166.058594 24.015625 " fill-opacity="1" fill-rule="nonzero"/></g><path fill="#3e3e41" d="M 168.160156 121.925781 L 173.066406 124.429688 L 173.066406 130.136719 C 173.066406 131.238281 173.964844 132.140625 175.066406 132.140625 C 176.167969 132.140625 177.070312 131.238281 177.070312 130.136719 L 177.070312 123.230469 C 177.070312 122.429688 176.667969 121.828125 175.96875 121.425781 L 169.960938 118.324219 C 168.960938 117.824219 167.757812 118.222656 167.257812 119.222656 C 166.757812 120.226562 167.160156 121.425781 168.160156 121.925781 Z M 168.160156 121.925781 " fill-opacity="1" fill-rule="nonzero"/><path fill="#3e3e41" d="M 152.140625 92.894531 L 157.046875 95.398438 L 157.046875 101.101562 C 157.046875 102.203125 157.949219 103.105469 159.050781 103.105469 C 160.152344 103.105469 161.050781 102.203125 161.050781 101.101562 L 161.050781 94.195312 C 161.050781 93.394531 160.652344 92.792969 159.949219 92.394531 L 153.945312 89.289062 C 152.941406 88.789062 151.742188 89.191406 151.242188 90.191406 C 150.738281 91.191406 151.140625 92.394531 152.140625 92.894531 Z M 152.140625 92.894531 " fill-opacity="1" fill-rule="nonzero"/><path fill="#3e3e41" d="M 189.085938 59.253906 L 198.894531 54.351562 C 197.996094 53.347656 197.292969 52.148438 196.792969 50.945312 L 187.480469 55.550781 C 188.484375 56.550781 188.984375 57.855469 189.085938 59.253906 Z M 189.085938 59.253906 " fill-opacity="1" fill-rule="nonzero"/><path fill="#3e3e41" d="M 164.054688 37.832031 L 164.054688 44.339844 C 165.355469 43.835938 166.757812 43.835938 168.058594 44.339844 L 168.058594 37.832031 C 167.460938 37.929688 166.757812 38.03125 166.058594 38.03125 C 165.355469 38.03125 164.65625 37.929688 164.054688 37.832031 Z M 164.054688 37.832031 " fill-opacity="1" fill-rule="nonzero"/><path fill="#3e3e41" d="M 145.332031 54.851562 L 137.324219 50.042969 C 136.824219 51.347656 136.125 52.449219 135.222656 53.449219 L 143.230469 58.253906 C 143.429688 56.953125 144.234375 55.75 145.332031 54.851562 Z M 145.332031 54.851562 " fill-opacity="1" fill-rule="nonzero"/><path fill="#3e3e41" d="M 168.160156 63.859375 L 173.066406 66.363281 L 173.066406 72.070312 C 173.066406 73.171875 173.964844 74.074219 175.066406 74.074219 C 176.167969 74.074219 177.070312 73.171875 177.070312 72.070312 L 177.070312 65.164062 C 177.070312 64.359375 176.667969 63.761719 175.96875 63.359375 L 169.960938 60.257812 C 168.960938 59.757812 167.757812 60.15625 167.257812 61.15625 C 166.757812 62.160156 167.160156 63.359375 168.160156 63.859375 Z M 168.160156 63.859375 " fill-opacity="1" fill-rule="nonzero"/><g fill="#3e3e41" fill-opacity="1"><g transform="translate(69.539576, 280.775488)"><g><path d="M 12.167969 -6.121094 L 12.167969 -22.414062 L 5.945312 -22.414062 L 5.945312 -19.195312 L 7.519531 -19.195312 L 7.519531 -6.433594 C 7.519531 -4.441406 6.46875 -3.148438 4.6875 -3.148438 C 2.9375 -3.148438 2.0625 -4.335938 2.0625 -4.335938 L 0.453125 -1.574219 C 0.453125 -1.574219 2.273438 0.453125 5.910156 0.453125 C 10.070312 0.453125 12.167969 -2.0625 12.167969 -6.121094 Z M 12.167969 -6.121094 "/></g></g></g><g fill="#3e3e41" fill-opacity="1"><g transform="translate(91.813332, 280.775488)"><g><path d="M 22.796875 -3.8125 L 21.121094 -6.714844 C 21.121094 -6.714844 18.601562 -3.148438 13.8125 -3.148438 C 8.742188 -3.148438 6.292969 -6.785156 6.292969 -11.222656 C 6.292969 -15.664062 8.566406 -19.265625 13.425781 -19.265625 C 15.523438 -19.265625 17.097656 -18.636719 18.21875 -17.9375 L 18.707031 -15.035156 L 22.167969 -15.035156 L 22.167969 -18.636719 C 22.167969 -18.636719 19.546875 -22.9375 13.042969 -22.9375 C 5.316406 -22.9375 1.644531 -17.691406 1.644531 -11.222656 C 1.644531 -4.753906 5.316406 0.453125 13.042969 0.453125 C 20.035156 0.453125 22.796875 -3.8125 22.796875 -3.8125 Z M 22.796875 -3.8125 "/></g></g></g><g fill="#3e3e41" fill-opacity="1"><g transform="translate(123.107847, 280.775488)"><g><path d="M 1.015625 -22.414062 L 1.015625 -18.8125 L 2.585938 -18.8125 L 2.585938 -3.671875 L 1.015625 -3.671875 L 1.015625 0 L 18.636719 0 L 18.636719 -5.417969 L 15.386719 -5.417969 L 15.175781 -3.671875 L 7.273438 -3.671875 L 7.273438 -18.8125 L 8.847656 -18.8125 L 8.847656 -22.414062 Z M 1.015625 -22.414062 "/></g></g></g><g fill="#3e3e41" fill-opacity="1"><g transform="translate(149.891982, 280.775488)"><g><path d="M 10.175781 -22.414062 L 2.308594 -3.671875 L 0.664062 -3.671875 L 0.664062 0 L 9.023438 0 L 9.023438 -3.671875 L 7.203125 -3.671875 L 8.566406 -7.378906 L 16.539062 -7.378906 L 17.902344 -3.671875 L 16.121094 -3.671875 L 16.121094 0 L 24.476562 0 L 24.476562 -3.671875 L 22.796875 -3.671875 L 14.929688 -22.414062 Z M 9.753906 -10.628906 L 12.554688 -18.253906 L 15.351562 -10.628906 Z M 9.753906 -10.628906 "/></g></g></g><g fill="#3e3e41" fill-opacity="1"><g transform="translate(182.515134, 280.775488)"><g><path d="M 7.273438 -3.671875 L 7.273438 -9.894531 L 12.167969 -9.894531 C 14.125 -9.894531 15.59375 -8.742188 15.59375 -6.785156 C 15.59375 -4.824219 14.125 -3.636719 12.167969 -3.636719 Z M 1.015625 -22.414062 L 1.015625 -18.8125 L 2.585938 -18.8125 L 2.585938 -3.671875 L 1.015625 -3.671875 L 1.015625 0 L 13.496094 0 C 17.34375 0 20.246094 -2.484375 20.246094 -6.121094 C 20.246094 -8.953125 18.53125 -10.839844 16.292969 -11.679688 C 17.691406 -12.761719 18.636719 -14.371094 18.636719 -16.328125 C 18.636719 -19.652344 15.839844 -22.414062 11.992188 -22.414062 Z M 7.273438 -12.554688 L 7.273438 -18.8125 L 10.699219 -18.8125 C 12.796875 -18.8125 13.988281 -17.308594 13.988281 -15.664062 C 13.988281 -13.847656 12.449219 -12.554688 10.699219 -12.554688 Z M 7.273438 -12.554688 "/></g></g></g><g fill="#3e3e41" fill-opacity="1"><g transform="translate(211.292227, 280.775488)"><g><path d="M 17.203125 -15.351562 L 17.203125 -18.707031 C 17.203125 -18.707031 14.792969 -22.9375 8.917969 -22.9375 C 4.230469 -22.9375 1.257812 -20.351562 1.257812 -16.328125 C 1.257812 -13.847656 2.484375 -12.273438 5.28125 -10.839844 L 11.890625 -7.484375 C 13.21875 -6.785156 13.566406 -6.015625 13.566406 -5.105469 C 13.566406 -3.636719 12.203125 -2.761719 10.070312 -2.761719 C 6.855469 -2.761719 5.175781 -4.335938 4.40625 -5.386719 L 4.265625 -7.097656 L 1.257812 -7.097656 L 1.257812 -3.742188 C 1.257812 -3.742188 3.707031 0.453125 10 0.453125 C 14.894531 0.453125 18.21875 -1.921875 18.21875 -5.945312 C 18.21875 -8.320312 17.097656 -10.105469 14.546875 -11.398438 L 7.691406 -14.859375 C 6.46875 -15.558594 5.875 -16.226562 5.875 -17.203125 C 5.875 -18.777344 7.132812 -19.6875 9.023438 -19.6875 C 11.328125 -19.6875 13.007812 -18.53125 13.988281 -17.554688 L 14.125 -15.351562 Z M 17.203125 -15.351562 "/></g></g></g><g fill="#3e3e41" fill-opacity="1"><g transform="translate(81.502878, 306.504967)"><g><path d="M 0.328125 -9.605469 L 0.328125 -7.539062 L 1.003906 -7.539062 L 1.003906 -2.082031 L 0.328125 -2.082031 L 0.328125 0 L 8.4375 0 L 8.4375 -2.832031 L 6.59375 -2.832031 L 6.476562 -2.082031 L 3.703125 -2.082031 L 3.703125 -7.539062 L 4.375 -7.539062 L 4.375 -9.605469 Z M 0.328125 -9.605469 "/></g></g></g><g fill="#3e3e41" fill-opacity="1"><g transform="translate(99.038849, 306.504967)"><g><path d="M 0.328125 -9.605469 L 0.328125 -7.539062 L 1.003906 -7.539062 L 1.003906 -2.082031 L 0.328125 -2.082031 L 0.328125 0 L 8.4375 0 L 8.4375 -2.847656 L 6.59375 -2.847656 L 6.476562 -2.082031 L 3.703125 -2.082031 L 3.703125 -3.777344 L 6.371094 -3.777344 L 6.371094 -5.84375 L 3.703125 -5.84375 L 3.703125 -7.539062 L 6.476562 -7.539062 L 6.59375 -6.789062 L 8.4375 -6.789062 L 8.4375 -9.605469 Z M 0.328125 -9.605469 "/></g></g></g><g fill="#3e3e41" fill-opacity="1"><g transform="translate(116.574819, 306.504967)"><g><path d="M 4.152344 -9.605469 L 0.988281 -2.082031 L 0.285156 -2.082031 L 0.285156 0 L 4.585938 0 L 4.585938 -2.082031 L 3.792969 -2.082031 L 4.152344 -3.164062 L 6.847656 -3.164062 L 7.210938 -2.082031 L 6.429688 -2.082031 L 6.429688 0 L 10.730469 0 L 10.730469 -2.082031 L 10.011719 -2.082031 L 6.847656 -9.605469 Z M 4.78125 -5.007812 L 5.515625 -7.195312 L 6.234375 -5.007812 Z M 4.78125 -5.007812 "/></g></g></g><g fill="#3e3e41" fill-opacity="1"><g transform="translate(136.418946, 306.504967)"><g><path d="M 4.257812 0 L 4.257812 -2.082031 L 3.703125 -2.082031 L 3.703125 -4.078125 L 4.183594 -4.078125 L 6.609375 0 L 9.128906 0 L 9.128906 -2.082031 L 8.242188 -2.082031 L 6.847656 -4.332031 C 7.808594 -4.734375 8.4375 -5.589844 8.4375 -6.835938 C 8.4375 -8.589844 7.148438 -9.605469 5.515625 -9.605469 L 0.328125 -9.605469 L 0.328125 -7.539062 L 1.003906 -7.539062 L 1.003906 -2.082031 L 0.328125 -2.082031 L 0.328125 0 Z M 3.703125 -5.5625 L 3.703125 -7.539062 L 4.734375 -7.539062 C 5.367188 -7.539062 5.753906 -7.089844 5.753906 -6.550781 C 5.753906 -5.964844 5.335938 -5.5625 4.734375 -5.5625 Z M 3.703125 -5.5625 "/></g></g></g><g fill="#3e3e41" fill-opacity="1"><g transform="translate(154.644364, 306.504967)"><g><path d="M 7.253906 -4.390625 L 3.085938 -9.605469 L 0.328125 -9.621094 L 0.328125 -7.539062 L 1.003906 -7.539062 L 1.003906 -2.082031 L 0.328125 -2.082031 L 0.328125 0 L 4.375 0 L 4.375 -2.082031 L 3.703125 -2.082031 L 3.703125 -5.230469 L 7.867188 0 L 9.953125 0 L 9.953125 -7.539062 L 10.625 -7.539062 L 10.625 -9.605469 L 6.578125 -9.621094 L 6.578125 -7.539062 L 7.253906 -7.539062 Z M 7.253906 -4.390625 "/></g></g></g><g fill="#3e3e41" fill-opacity="1"><g transform="translate(174.443529, 306.504967)"><g><path d="M 0.328125 -9.621094 L 0.328125 -7.539062 L 1.003906 -7.539062 L 1.003906 -2.082031 L 0.328125 -2.082031 L 0.328125 0 L 4.375 0 L 4.375 -2.082031 L 3.703125 -2.082031 L 3.703125 -7.539062 L 4.375 -7.539062 L 4.375 -9.605469 Z M 0.328125 -9.621094 "/></g></g></g><g fill="#3e3e41" fill-opacity="1"><g transform="translate(187.992693, 306.504967)"><g><path d="M 7.253906 -4.390625 L 3.085938 -9.605469 L 0.328125 -9.621094 L 0.328125 -7.539062 L 1.003906 -7.539062 L 1.003906 -2.082031 L 0.328125 -2.082031 L 0.328125 0 L 4.375 0 L 4.375 -2.082031 L 3.703125 -2.082031 L 3.703125 -5.230469 L 7.867188 0 L 9.953125 0 L 9.953125 -7.539062 L 10.625 -7.539062 L 10.625 -9.605469 L 6.578125 -9.621094 L 6.578125 -7.539062 L 7.253906 -7.539062 Z M 7.253906 -4.390625 "/></g></g></g><g fill="#3e3e41" fill-opacity="1"><g transform="translate(207.791863, 306.504967)"><g><path d="M 9.953125 -1.722656 L 9.953125 -5.304688 L 5.605469 -5.304688 L 5.605469 -3.355469 L 7.253906 -3.355469 L 7.253906 -2.113281 C 6.894531 -1.964844 6.488281 -1.875 5.996094 -1.875 C 4.152344 -1.875 3.28125 -3.191406 3.28125 -4.8125 C 3.28125 -6.429688 4.167969 -7.75 6.011719 -7.75 C 6.683594 -7.75 7.238281 -7.597656 7.675781 -7.390625 L 7.988281 -5.996094 L 9.953125 -5.996094 L 9.953125 -7.882812 C 9.953125 -7.882812 8.738281 -9.832031 5.769531 -9.832031 C 2.261719 -9.832031 0.597656 -7.582031 0.597656 -4.8125 C 0.597656 -2.039062 2.261719 0.195312 5.769531 0.195312 C 8.753906 0.195312 9.953125 -1.722656 9.953125 -1.722656 Z M 9.953125 -1.722656 "/></g></g></g></svg>